# Blender 4.0.2
# www.blender.org
mtllib pinceeeel.mtl
o Paintbrush_01
v 4.558916 0.387612 -0.674984
v 4.542690 0.762336 -0.520619
v 4.503521 0.917552 -0.147947
v 4.464352 0.762336 0.224725
v 4.448128 0.387612 0.379090
v 4.464352 0.012887 0.224725
v 4.503521 -0.142329 -0.147947
v 4.542690 0.012887 -0.520619
v 5.152423 0.387612 -0.360786
v 5.131114 0.595734 -0.277254
v 5.079669 0.681941 -0.075590
v 5.028222 0.595734 0.126074
v 5.006915 0.387612 0.209606
v 5.028222 0.179489 0.126074
v 5.079669 0.093282 -0.075590
v 5.131114 0.179489 -0.277254
v 5.546594 0.387612 0.098257
v 5.524883 0.452281 0.113945
v 5.472463 0.479068 0.151818
v 5.420043 0.452281 0.189692
v 5.398331 0.387612 0.205380
v 5.420043 0.322942 0.189692
v 5.472463 0.296155 0.151818
v 5.524883 0.322942 0.113945
v 5.575249 0.377676 0.336001
vn 0.3838 0.8713 -0.3057
vn 0.3838 -0.8713 -0.3057
vn 0.2664 -0.3495 0.8983
vn 0.3119 0.8573 0.4096
vn 0.4389 0.3636 -0.8217
vn 0.4389 -0.3636 -0.8217
vn 0.3119 -0.8573 0.4096
vn 0.2664 0.3495 0.8983
vn 0.7186 -0.3350 -0.6094
vn 0.1954 -0.8516 0.4864
vn -0.0084 0.3430 0.9393
vn 0.5095 0.8422 -0.1763
vn 0.5095 -0.8422 -0.1763
vn -0.0084 -0.3430 0.9393
vn 0.1954 0.8516 0.4864
vn 0.7186 0.3350 -0.6094
vn -0.0692 0.8571 0.5105
vn 0.9359 0.3381 -0.0987
vn 0.9307 -0.3432 -0.1265
vn -0.1201 -0.8813 0.4571
vn -0.5396 0.3652 0.7586
vn 0.5369 0.8290 0.1567
vn 0.5071 -0.8565 0.0961
vn -0.5654 -0.3688 0.7378
s 0
usemtl 039BE5
f 3//1 11//1 10//1 2//1
f 8//2 16//2 15//2 7//2
f 6//3 14//3 13//3 5//3
f 4//4 12//4 11//4 3//4
f 2//5 10//5 9//5 1//5
f 1//6 9//6 16//6 8//6
f 7//7 15//7 14//7 6//7
f 5//8 13//8 12//8 4//8
f 9//9 17//9 24//9 16//9
f 15//10 23//10 22//10 14//10
f 13//11 21//11 20//11 12//11
f 11//12 19//12 18//12 10//12
f 16//13 24//13 23//13 15//13
f 14//14 22//14 21//14 13//14
f 12//15 20//15 19//15 11//15
f 10//16 18//16 17//16 9//16
f 20//17 25//17 19//17
f 18//18 25//18 17//18
f 17//19 25//19 24//19
f 23//20 25//20 22//20
f 21//21 25//21 20//21
f 19//22 25//22 18//22
f 24//23 25//23 23//23
f 22//24 25//24 21//24
