# Blender 4.0.2
# www.blender.org
mtllib pincel.mtl
o Paintbrush_01
v 4.009843 0.387612 -0.674984
v 3.993617 0.762336 -0.520619
v 3.954448 0.917552 -0.147947
v 3.915279 0.762336 0.224725
v 3.899055 0.387612 0.379090
v 3.915279 0.012887 0.224725
v 3.954448 -0.142329 -0.147947
v 3.993617 0.012887 -0.520619
v 4.603350 0.387612 -0.360786
v 4.582041 0.595734 -0.277254
v 4.530596 0.681941 -0.075590
v 4.479149 0.595734 0.126074
v 4.457842 0.387612 0.209606
v 4.479149 0.179489 0.126074
v 4.530596 0.093282 -0.075590
v 4.582041 0.179489 -0.277254
v 4.997521 0.387612 0.098257
v 4.975810 0.452281 0.113945
v 4.923390 0.479068 0.151818
v 4.870970 0.452281 0.189692
v 4.849258 0.387612 0.205380
v 4.870970 0.322942 0.189692
v 4.923390 0.296155 0.151818
v 4.975810 0.322942 0.113945
v 5.026176 0.377676 0.336001
vn 0.3838 0.8713 -0.3057
vn 0.3838 -0.8713 -0.3057
vn 0.2664 -0.3495 0.8983
vn 0.3119 0.8573 0.4096
vn 0.4389 0.3636 -0.8217
vn 0.4389 -0.3636 -0.8217
vn 0.3119 -0.8573 0.4096
vn 0.2664 0.3495 0.8983
vn 0.7186 -0.3350 -0.6094
vn 0.1954 -0.8516 0.4864
vn -0.0084 0.3430 0.9393
vn 0.5095 0.8422 -0.1763
vn 0.5095 -0.8422 -0.1763
vn -0.0084 -0.3430 0.9393
vn 0.1954 0.8516 0.4864
vn 0.7186 0.3350 -0.6094
vn -0.0692 0.8571 0.5105
vn 0.9359 0.3381 -0.0987
vn 0.9307 -0.3432 -0.1265
vn -0.1201 -0.8813 0.4571
vn -0.5396 0.3652 0.7586
vn 0.5369 0.8290 0.1567
vn 0.5071 -0.8565 0.0961
vn -0.5654 -0.3688 0.7378
s 0
usemtl 039BE5
f 3//1 11//1 10//1 2//1
f 8//2 16//2 15//2 7//2
f 6//3 14//3 13//3 5//3
f 4//4 12//4 11//4 3//4
f 2//5 10//5 9//5 1//5
f 1//6 9//6 16//6 8//6
f 7//7 15//7 14//7 6//7
f 5//8 13//8 12//8 4//8
f 9//9 17//9 24//9 16//9
f 15//10 23//10 22//10 14//10
f 13//11 21//11 20//11 12//11
f 11//12 19//12 18//12 10//12
f 16//13 24//13 23//13 15//13
f 14//14 22//14 21//14 13//14
f 12//15 20//15 19//15 11//15
f 10//16 18//16 17//16 9//16
f 20//17 25//17 19//17
f 18//18 25//18 17//18
f 17//19 25//19 24//19
f 23//20 25//20 22//20
f 21//21 25//21 20//21
f 19//22 25//22 18//22
f 24//23 25//23 23//23
f 22//24 25//24 21//24
o Paintbrush_01.001
v -2.834630 0.387612 -0.476517
v -2.834630 0.671110 -0.359088
v -2.834630 0.788539 -0.075590
v -2.834630 0.671110 0.207908
v -2.834630 0.387612 0.325337
v -2.834630 0.104114 0.207908
v -2.834630 -0.013315 -0.075590
v -2.834630 0.104114 -0.359088
v 1.830486 0.387612 -0.745407
v 1.830486 0.861244 -0.549222
v 1.830486 1.057429 -0.075590
v 1.830486 0.861244 0.398042
v 1.830486 0.387612 0.594227
v 1.830486 -0.086021 0.398042
v 1.830486 -0.282206 -0.075590
v 1.830486 -0.086021 -0.549222
v 2.242176 0.387612 -0.641764
v 2.242176 0.787957 -0.475935
v 2.242176 0.953785 -0.075590
v 2.242176 0.787957 0.324755
v 2.242176 0.387612 0.490584
v 2.242176 -0.012734 0.324755
v 2.242176 -0.178562 -0.075590
v 2.242176 -0.012734 -0.475935
v -4.712382 0.387612 -0.348256
v -4.712382 0.580416 -0.268394
v -4.712382 0.660277 -0.075590
v -4.712382 0.580416 0.117214
v -4.712382 0.387612 0.197075
v -4.712382 0.194808 0.117214
v -4.712382 0.114946 -0.075590
v -4.712382 0.194808 -0.268394
v -4.926110 0.387612 -0.271806
v -4.926110 0.526358 -0.214336
v -4.926110 0.583828 -0.075590
v -4.926110 0.526358 0.063156
v -4.926110 0.387612 0.120626
v -4.926110 0.248866 0.063156
v -4.926110 0.191396 -0.075590
v -4.926110 0.248866 -0.214336
v -5.013798 0.387612 -0.153490
v -5.013798 0.442696 -0.130674
v -5.013798 0.465512 -0.075590
v -5.013798 0.442696 -0.020506
v -5.013798 0.387612 0.002310
v -5.013798 0.332528 -0.020506
v -5.013798 0.309712 -0.075590
v -5.013798 0.332528 -0.130674
v -5.037963 0.360430 -0.075590
vn -0.0532 -0.9226 -0.3821
vn -0.0532 -0.3821 0.9226
vn -0.0532 0.9226 0.3821
vn -0.0532 0.3821 -0.9226
vn -0.0532 -0.3821 -0.9226
vn -0.0532 -0.9226 0.3821
vn -0.0532 0.3821 0.9226
vn -0.0532 0.9226 -0.3821
vn 0.2265 -0.3727 -0.8999
vn 0.2265 -0.8999 0.3727
vn 0.2265 0.3727 0.8999
vn 0.2265 0.8999 -0.3727
vn 0.2265 -0.8999 -0.3727
vn 0.2265 -0.3727 0.8999
vn 0.2265 0.8999 0.3727
vn 0.2265 0.3727 -0.8999
vn -0.0630 -0.9220 -0.3819
vn -0.0630 -0.3819 0.9220
vn -0.0630 0.9220 0.3819
vn -0.0630 0.3819 -0.9220
vn -0.0630 -0.3819 -0.9220
vn -0.0630 -0.9220 0.3819
vn -0.0630 0.3819 0.9220
vn -0.0630 0.9220 -0.3819
vn -0.3138 0.3634 -0.8772
vn -0.3138 -0.3634 -0.8772
vn -0.3138 -0.8772 0.3634
vn -0.3138 0.3634 0.8772
vn -0.3138 0.8772 -0.3634
vn -0.3138 -0.8772 -0.3634
vn -0.3138 -0.3634 0.8772
vn -0.3138 0.8772 0.3634
vn -0.7800 -0.5781 -0.2395
vn -0.7800 -0.2395 0.5781
vn -0.7800 0.5781 0.2395
vn -0.7800 0.2395 -0.5781
vn -0.7800 -0.2395 -0.5781
vn -0.7800 -0.5781 0.2395
vn -0.7800 0.2395 0.5781
vn -0.7800 0.5781 -0.2395
vn -0.9704 0.2232 -0.0924
vn -0.8888 -0.4235 -0.1754
vn -0.9309 -0.1398 0.3375
vn -0.9704 0.2232 0.0924
vn -0.9596 0.1077 -0.2601
vn -0.9309 -0.1398 -0.3375
vn -0.8888 -0.4235 0.1754
vn -0.9596 0.1077 0.2601
s 0
usemtl 80DEEA
f 33//25 41//25 40//25 32//25
f 31//26 39//26 38//26 30//26
f 29//27 37//27 36//27 28//27
f 27//28 35//28 34//28 26//28
f 26//29 34//29 41//29 33//29
f 32//30 40//30 39//30 31//30
f 30//31 38//31 37//31 29//31
f 28//32 36//32 35//32 27//32
f 34//33 42//33 49//33 41//33
f 40//34 48//34 47//34 39//34
f 38//35 46//35 45//35 37//35
f 36//36 44//36 43//36 35//36
f 41//37 49//37 48//37 40//37
f 39//38 47//38 46//38 38//38
f 37//39 45//39 44//39 36//39
f 35//40 43//40 42//40 34//40
f 32//41 56//41 57//41 33//41
f 30//42 54//42 55//42 31//42
f 28//43 52//43 53//43 29//43
f 26//44 50//44 51//44 27//44
f 33//45 57//45 50//45 26//45
f 31//46 55//46 56//46 32//46
f 29//47 53//47 54//47 30//47
f 27//48 51//48 52//48 28//48
f 50//49 58//49 59//49 51//49
f 57//50 65//50 58//50 50//50
f 55//51 63//51 64//51 56//51
f 53//52 61//52 62//52 54//52
f 51//53 59//53 60//53 52//53
f 56//54 64//54 65//54 57//54
f 54//55 62//55 63//55 55//55
f 52//56 60//56 61//56 53//56
f 64//57 72//57 73//57 65//57
f 62//58 70//58 71//58 63//58
f 60//59 68//59 69//59 61//59
f 58//60 66//60 67//60 59//60
f 65//61 73//61 66//61 58//61
f 63//62 71//62 72//62 64//62
f 61//63 69//63 70//63 62//63
f 59//64 67//64 68//64 60//64
f 67//65 74//65 68//65
f 72//66 74//66 73//66
f 70//67 74//67 71//67
f 68//68 74//68 69//68
f 66//69 74//69 67//69
f 73//70 74//70 66//70
f 71//71 74//71 72//71
f 69//72 74//72 70//72
o Paintbrush_01.002
v 2.712400 0.387612 -0.666591
v 2.712399 0.805513 -0.493491
v 2.712400 0.978613 -0.075590
v 2.712399 0.805513 0.342311
v 2.712400 0.387612 0.515411
v 2.712399 -0.030290 0.342311
v 2.712399 -0.203390 -0.075590
v 2.712399 -0.030290 -0.493491
v 3.212418 0.387612 -0.819219
v 3.225115 0.914330 -0.601415
v 3.255768 1.132503 -0.075590
v 3.286421 0.914330 0.450235
v 3.299118 0.387612 0.668039
v 3.286421 -0.139106 0.450235
v 3.255768 -0.357280 -0.075590
v 3.225115 -0.139106 -0.601415
v 4.009843 0.387612 -0.674984
v 3.993617 0.762336 -0.520619
v 3.954448 0.917552 -0.147947
v 3.915279 0.762336 0.224725
v 3.899055 0.387612 0.379090
v 3.915279 0.012887 0.224725
v 3.954448 -0.142329 -0.147947
v 3.993617 0.012887 -0.520619
vn -0.2686 0.3714 -0.8888
vn -0.2686 -0.3714 -0.8888
vn -0.2463 -0.8924 0.3780
vn -0.2364 0.3688 0.8989
vn -0.2597 0.8950 -0.3626
vn -0.2597 -0.8950 -0.3626
vn -0.2364 -0.3688 0.8989
vn -0.2463 0.8924 0.3780
vn 0.2272 -0.9000 -0.3719
vn 0.3983 -0.3487 0.8484
vn 0.3233 0.8728 0.3658
vn 0.1675 0.3768 -0.9110
vn 0.1675 -0.3768 -0.9110
vn 0.3233 -0.8728 0.3658
vn 0.3983 0.3487 0.8484
vn 0.2272 0.9000 -0.3719
s 0
usemtl 795548
f 76//73 84//73 83//73 75//73
f 75//74 83//74 90//74 82//74
f 81//75 89//75 88//75 80//75
f 79//76 87//76 86//76 78//76
f 77//77 85//77 84//77 76//77
f 82//78 90//78 89//78 81//78
f 80//79 88//79 87//79 79//79
f 78//80 86//80 85//80 77//80
f 90//81 98//81 97//81 89//81
f 88//82 96//82 95//82 87//82
f 86//83 94//83 93//83 85//83
f 84//84 92//84 91//84 83//84
f 83//85 91//85 98//85 90//85
f 89//86 97//86 96//86 88//86
f 87//87 95//87 94//87 86//87
f 85//88 93//88 92//88 84//88
o Paintbrush_01.003
v 2.242176 0.387612 -0.641764
v 2.242176 0.787957 -0.475935
v 2.242176 0.953785 -0.075590
v 2.242176 0.787957 0.324755
v 2.242176 0.387612 0.490584
v 2.242176 -0.012734 0.324755
v 2.242176 -0.178562 -0.075590
v 2.242176 -0.012734 -0.475935
v 2.242176 0.387612 -0.708890
v 2.242176 0.835422 -0.523400
v 2.242176 1.020911 -0.075590
v 2.242176 0.835422 0.372220
v 2.242176 0.387612 0.557710
v 2.242176 -0.060199 0.372220
v 2.242176 -0.245688 -0.075590
v 2.242176 -0.060199 -0.523400
v 2.712400 0.387612 -0.708890
v 2.712400 0.835422 -0.523400
v 2.712399 1.020911 -0.075590
v 2.712400 0.835422 0.372220
v 2.712400 0.387612 0.557710
v 2.712400 -0.060199 0.372220
v 2.712400 -0.245688 -0.075590
v 2.712400 -0.060199 -0.523400
v 2.712400 0.387612 -0.666591
v 2.712399 0.805513 -0.493491
v 2.712400 0.978613 -0.075590
v 2.712399 0.805513 0.342311
v 2.712400 0.387612 0.515411
v 2.712399 -0.030290 0.342311
v 2.712399 -0.203390 -0.075590
v 2.712399 -0.030290 -0.493491
vn -1.0000 -0.0000 -0.0000
vn -0.0000 -0.9239 -0.3827
vn -0.0000 -0.3827 0.9239
vn -0.0000 0.9239 0.3827
vn -0.0000 0.3827 -0.9239
vn -0.0000 -0.3827 -0.9239
vn -0.0000 -0.9239 0.3827
vn -0.0000 0.3827 0.9239
vn -0.0000 0.9239 -0.3827
vn 1.0000 -0.0000 -0.0000
s 0
usemtl 455A64
f 104//89 112//89 111//89 103//89
f 102//89 110//89 109//89 101//89
f 100//89 108//89 107//89 99//89
f 99//89 107//89 114//89 106//89
f 105//89 113//89 112//89 104//89
f 103//89 111//89 110//89 102//89
f 101//89 109//89 108//89 100//89
f 106//89 114//89 113//89 105//89
f 114//90 122//90 121//90 113//90
f 112//91 120//91 119//91 111//91
f 110//92 118//92 117//92 109//92
f 108//93 116//93 115//93 107//93
f 107//94 115//94 122//94 114//94
f 113//95 121//95 120//95 112//95
f 111//96 119//96 118//96 110//96
f 109//97 117//97 116//97 108//97
f 121//98 129//98 128//98 120//98
f 119//98 127//98 126//98 118//98
f 117//98 125//98 124//98 116//98
f 122//98 130//98 129//98 121//98
f 120//98 128//98 127//98 119//98
f 118//98 126//98 125//98 117//98
f 116//98 124//98 123//98 115//98
f 115//98 123//98 130//98 122//98
